<svg xmlns="http://www.w3.org/2000/svg" xmlns:xlink="http://www.w3.org/1999/xlink" width="500" zoomAndPan="magnify" viewBox="0 0 375 149.999998" height="200" preserveAspectRatio="xMidYMid meet" version="1.0"><defs><g/><clipPath id="0c456dea04"><path d="M 45 41.765625 L 292 41.765625 L 292 124 L 45 124 Z M 45 41.765625 " clip-rule="nonzero"/></clipPath><clipPath id="ea707e2da5"><path d="M 106 62 L 307 62 L 307 142.265625 L 106 142.265625 Z M 106 62 " clip-rule="nonzero"/></clipPath><clipPath id="c04ceb7ae7"><path d="M 216 53 L 352.5 53 L 352.5 103 L 216 103 Z M 216 53 " clip-rule="nonzero"/></clipPath><clipPath id="c5940ef989"><path d="M 45 41.765625 L 165 41.765625 L 165 124 L 45 124 Z M 45 41.765625 " clip-rule="nonzero"/></clipPath><clipPath id="ed714a0d53"><path d="M 106 62 L 165 62 L 165 142.265625 L 106 142.265625 Z M 106 62 " clip-rule="nonzero"/></clipPath><clipPath id="882cc2cafb"><path d="M 52 60 L 165 60 L 165 98 L 52 98 Z M 52 60 " clip-rule="nonzero"/></clipPath><clipPath id="aef3582fd3"><rect x="0" width="197" y="0" height="65"/></clipPath><clipPath id="b03743d597"><rect x="0" width="51" y="0" height="90"/></clipPath><clipPath id="cabb49542c"><rect x="0" width="51" y="0" height="90"/></clipPath></defs><g clip-path="url(#0c456dea04)"><path fill="#88b4f0" d="M 291.761719 41.78125 C 291.761719 41.78125 291.503906 41.851562 290.996094 41.984375 C 290.488281 42.121094 289.730469 42.296875 288.753906 42.574219 C 286.792969 43.109375 283.9375 43.949219 280.410156 45.207031 C 278.640625 45.828125 276.71875 46.582031 274.652344 47.425781 C 272.589844 48.292969 270.386719 49.269531 268.082031 50.378906 C 263.46875 52.609375 258.425781 55.347656 253.109375 58.640625 C 247.785156 61.925781 242.179688 65.738281 236.285156 69.988281 C 230.390625 74.234375 224.214844 78.917969 217.609375 83.882812 C 210.996094 88.839844 203.96875 94.085938 196.171875 99.332031 C 192.273438 101.953125 188.171875 104.566406 183.800781 107.117188 C 181.609375 108.386719 179.351562 109.640625 177.015625 110.867188 C 174.675781 112.085938 172.246094 113.273438 169.730469 114.414062 C 167.222656 115.558594 164.621094 116.621094 161.964844 117.609375 C 159.304688 118.59375 156.582031 119.503906 153.769531 120.285156 C 153.078125 120.492188 152.355469 120.664062 151.652344 120.855469 C 151.292969 120.945312 150.953125 121.039062 150.582031 121.125 L 149.46875 121.378906 C 148.722656 121.542969 147.980469 121.707031 147.242188 121.871094 C 146.503906 122.003906 145.765625 122.136719 145.03125 122.269531 C 143.554688 122.554688 142.089844 122.722656 140.632812 122.925781 C 139.90625 123.035156 139.179688 123.089844 138.453125 123.164062 C 137.730469 123.234375 137.003906 123.304688 136.285156 123.375 C 130.519531 123.832031 124.890625 123.792969 119.457031 123.394531 C 114.019531 122.992188 108.777344 122.226562 103.800781 121.128906 C 98.824219 120.035156 94.109375 118.632812 89.71875 117.003906 C 88.628906 116.578125 87.550781 116.167969 86.488281 115.742188 C 85.449219 115.28125 84.417969 114.824219 83.394531 114.371094 L 82.632812 114.027344 L 81.894531 113.660156 C 81.40625 113.414062 80.917969 113.167969 80.433594 112.925781 C 79.953125 112.683594 79.46875 112.4375 78.992188 112.195312 C 78.511719 111.957031 78.066406 111.679688 77.601562 111.421875 C 76.695312 110.902344 75.796875 110.382812 74.902344 109.871094 C 74.050781 109.324219 73.207031 108.777344 72.371094 108.234375 C 71.957031 107.960938 71.535156 107.703125 71.140625 107.421875 C 70.75 107.132812 70.359375 106.851562 69.972656 106.570312 C 69.203125 106 68.429688 105.445312 67.695312 104.882812 C 66.988281 104.292969 66.289062 103.714844 65.59375 103.136719 C 65.253906 102.847656 64.910156 102.5625 64.570312 102.28125 C 64.246094 101.984375 63.933594 101.683594 63.621094 101.386719 C 62.996094 100.796875 62.378906 100.210938 61.769531 99.632812 C 61.460938 99.351562 61.183594 99.050781 60.910156 98.75 C 60.632812 98.449219 60.355469 98.152344 60.082031 97.859375 C 55.714844 93.140625 52.757812 88.488281 50.671875 84.332031 C 48.535156 80.1875 47.453125 76.46875 46.59375 73.476562 C 46.226562 71.964844 45.96875 70.617188 45.722656 69.460938 C 45.667969 69.167969 45.601562 68.894531 45.5625 68.625 C 45.527344 68.351562 45.496094 68.09375 45.460938 67.847656 C 45.398438 67.355469 45.34375 66.910156 45.292969 66.511719 C 45.105469 64.925781 45.007812 64.085938 45.007812 64.085938 C 45.007812 64.085938 45.425781 64.867188 46.214844 66.335938 C 46.410156 66.703125 46.625 67.117188 46.867188 67.570312 C 46.984375 67.796875 47.109375 68.03125 47.238281 68.28125 C 47.367188 68.527344 47.535156 68.777344 47.6875 69.039062 C 48.332031 70.089844 49.035156 71.300781 49.867188 72.644531 C 51.667969 75.285156 53.808594 78.507812 56.898438 81.898438 C 59.929688 85.304688 63.726562 88.945312 68.492188 92.390625 C 68.789062 92.605469 69.089844 92.824219 69.386719 93.039062 C 69.683594 93.257812 69.980469 93.480469 70.308594 93.683594 C 70.945312 94.09375 71.589844 94.511719 72.242188 94.933594 C 72.5625 95.140625 72.890625 95.351562 73.214844 95.5625 C 73.558594 95.757812 73.90625 95.957031 74.253906 96.15625 C 74.941406 96.554688 75.636719 96.957031 76.335938 97.363281 C 77.058594 97.75 77.804688 98.117188 78.542969 98.5 C 78.914062 98.691406 79.285156 98.882812 79.65625 99.074219 C 80.03125 99.265625 80.433594 99.429688 80.820312 99.609375 C 81.597656 99.964844 82.382812 100.324219 83.171875 100.683594 C 83.988281 101.011719 84.8125 101.339844 85.640625 101.671875 C 86.058594 101.832031 86.457031 102.015625 86.890625 102.164062 C 87.316406 102.3125 87.746094 102.464844 88.179688 102.617188 C 88.609375 102.765625 89.042969 102.917969 89.472656 103.070312 L 90.125 103.300781 L 90.792969 103.503906 C 91.683594 103.777344 92.582031 104.050781 93.484375 104.328125 C 94.40625 104.574219 95.332031 104.820312 96.265625 105.0625 C 100.015625 106 103.949219 106.757812 108.027344 107.289062 C 112.105469 107.824219 116.332031 108.101562 120.621094 108.128906 C 124.90625 108.15625 129.261719 107.933594 133.539062 107.390625 C 134.066406 107.3125 134.597656 107.234375 135.128906 107.160156 C 135.660156 107.082031 136.203125 107.023438 136.71875 106.917969 C 137.757812 106.71875 138.824219 106.570312 139.832031 106.328125 C 140.34375 106.214844 140.855469 106.105469 141.367188 105.996094 C 141.863281 105.871094 142.359375 105.742188 142.855469 105.613281 L 143.597656 105.425781 C 143.847656 105.363281 144.113281 105.277344 144.371094 105.203125 C 144.886719 105.046875 145.40625 104.914062 145.925781 104.742188 C 148 104.109375 150.082031 103.367188 152.171875 102.5625 C 154.261719 101.75 156.359375 100.878906 158.457031 99.925781 C 166.851562 96.128906 174.878906 91.546875 182.640625 86.9375 C 190.402344 82.3125 197.921875 77.625 205.273438 73.21875 C 212.625 68.808594 219.808594 64.671875 226.804688 61.019531 C 233.800781 57.359375 240.601562 54.183594 247.050781 51.597656 C 253.496094 48.996094 259.601562 47.015625 265.070312 45.566406 C 267.804688 44.847656 270.394531 44.269531 272.78125 43.789062 C 275.183594 43.332031 277.378906 42.957031 279.371094 42.695312 C 283.355469 42.160156 286.460938 41.953125 288.5625 41.863281 C 289.613281 41.8125 290.417969 41.8125 290.953125 41.796875 C 291.488281 41.785156 291.761719 41.78125 291.761719 41.78125 " fill-opacity="1" fill-rule="nonzero"/></g><g clip-path="url(#ea707e2da5)"><path fill="#88b4f0" d="M 306.050781 62.910156 C 306.050781 62.910156 305.398438 63.320312 304.183594 64.085938 C 303.574219 64.46875 302.808594 64.925781 301.945312 65.511719 C 301.507812 65.800781 301.039062 66.109375 300.539062 66.4375 C 300.039062 66.765625 299.503906 67.113281 298.957031 67.5 C 297.863281 68.273438 296.621094 69.09375 295.328125 70.058594 C 294.679688 70.539062 293.992188 71.023438 293.296875 71.542969 C 292.601562 72.070312 291.882812 72.617188 291.140625 73.179688 C 288.191406 75.457031 284.933594 78.101562 281.4375 81.105469 C 277.9375 84.105469 274.207031 87.460938 270.207031 91.101562 C 266.207031 94.738281 261.949219 98.664062 257.296875 102.761719 C 254.964844 104.808594 252.554688 106.902344 250 109.007812 C 248.738281 110.0625 247.410156 111.113281 246.089844 112.179688 C 244.730469 113.230469 243.386719 114.304688 241.957031 115.355469 C 239.15625 117.480469 236.152344 119.570312 233.015625 121.632812 C 229.871094 123.6875 226.519531 125.675781 223.007812 127.585938 C 219.472656 129.480469 215.824219 131.21875 212.105469 132.789062 C 211.167969 133.175781 210.222656 133.542969 209.285156 133.914062 C 208.816406 134.101562 208.34375 134.28125 207.878906 134.46875 C 207.398438 134.636719 206.917969 134.8125 206.441406 134.980469 C 205.960938 135.152344 205.484375 135.320312 205.007812 135.492188 C 204.53125 135.660156 204.046875 135.8125 203.566406 135.96875 C 202.601562 136.28125 201.648438 136.601562 200.679688 136.878906 C 192.96875 139.203125 185.195312 140.648438 177.742188 141.441406 C 174.019531 141.84375 170.363281 142.0625 166.820312 142.140625 C 163.277344 142.222656 159.84375 142.175781 156.542969 141.992188 C 156.128906 141.96875 155.71875 141.949219 155.3125 141.929688 C 154.902344 141.898438 154.496094 141.871094 154.09375 141.84375 C 153.285156 141.777344 152.484375 141.726562 151.695312 141.65625 C 150.113281 141.496094 148.566406 141.355469 147.0625 141.15625 C 144.046875 140.792969 141.1875 140.304688 138.488281 139.800781 C 133.097656 138.746094 128.371094 137.464844 124.351562 136.164062 C 120.328125 134.859375 117.011719 133.523438 114.371094 132.375 C 111.742188 131.199219 109.777344 130.214844 108.472656 129.519531 C 107.191406 128.816406 106.503906 128.441406 106.503906 128.441406 C 106.503906 128.441406 107.300781 128.648438 108.796875 129.027344 C 110.292969 129.410156 112.519531 129.933594 115.378906 130.535156 C 118.253906 131.109375 121.769531 131.753906 125.867188 132.292969 C 129.960938 132.832031 134.636719 133.273438 139.78125 133.492188 C 142.355469 133.582031 145.042969 133.648438 147.832031 133.601562 C 149.226562 133.601562 150.648438 133.542969 152.089844 133.503906 C 152.808594 133.46875 153.539062 133.433594 154.269531 133.398438 C 154.632812 133.378906 155.003906 133.363281 155.371094 133.34375 C 155.738281 133.316406 156.109375 133.292969 156.480469 133.265625 C 159.449219 133.078125 162.5 132.773438 165.605469 132.378906 C 168.714844 131.988281 171.882812 131.492188 175.074219 130.863281 C 181.460938 129.617188 187.992188 127.917969 194.394531 125.636719 C 195.203125 125.367188 195.988281 125.054688 196.789062 124.761719 C 197.1875 124.609375 197.589844 124.464844 197.984375 124.308594 C 198.378906 124.148438 198.773438 123.988281 199.171875 123.832031 C 199.566406 123.671875 199.964844 123.515625 200.363281 123.351562 C 200.757812 123.183594 201.152344 123.011719 201.542969 122.84375 C 202.335938 122.5 203.128906 122.15625 203.925781 121.8125 C 207.078125 120.375 210.222656 118.824219 213.34375 117.15625 C 216.453125 115.460938 219.492188 113.726562 222.433594 111.921875 C 225.371094 110.105469 228.253906 108.28125 231.042969 106.402344 C 232.453125 105.488281 233.820312 104.527344 235.195312 103.609375 C 236.558594 102.660156 237.921875 101.746094 239.253906 100.800781 C 241.933594 98.945312 244.554688 97.085938 247.128906 95.273438 C 252.28125 91.644531 257.246094 88.167969 262.03125 84.992188 C 266.8125 81.808594 271.410156 78.921875 275.75 76.417969 C 280.089844 73.902344 284.171875 71.777344 287.835938 70.019531 C 288.757812 69.59375 289.648438 69.175781 290.507812 68.773438 C 291.371094 68.382812 292.222656 68.023438 293.023438 67.675781 C 294.621094 66.964844 296.140625 66.386719 297.484375 65.851562 C 298.152344 65.578125 298.800781 65.347656 299.410156 65.128906 C 300.015625 64.914062 300.585938 64.707031 301.113281 64.519531 C 302.160156 64.132812 303.078125 63.851562 303.8125 63.613281 C 305.269531 63.15625 306.050781 62.910156 306.050781 62.910156 " fill-opacity="1" fill-rule="nonzero"/></g><g clip-path="url(#c04ceb7ae7)"><path fill="#88b4f0" d="M 352.773438 58.722656 C 303.476562 43.355469 258.074219 65.902344 216.753906 102.546875 C 216.753906 102.546875 293.023438 54.9375 352.773438 58.722656 " fill-opacity="1" fill-rule="nonzero"/></g><path fill="#88b4f0" d="M 52.824219 62.371094 C 52.824219 62.371094 98.96875 120.226562 200.980469 60.71875 C 200.980469 60.71875 105.851562 142.554688 52.824219 62.371094 " fill-opacity="1" fill-rule="nonzero"/><g fill="#ffffff" fill-opacity="1"><g transform="translate(39.547347, 85.930551)"><g><path d="M 35.578125 -69.140625 C 27.984375 -69.140625 21.96875 -65.976562 17.53125 -59.65625 C 13.101562 -53.34375 10.890625 -44.207031 10.890625 -32.25 C 10.890625 -17.738281 14.210938 -8.363281 20.859375 -4.125 C 22.878906 -2.851562 24.742188 -2.03125 26.453125 -1.65625 C 28.171875 -1.289062 30.070312 -1.109375 32.15625 -1.109375 C 38.800781 -1.109375 45.753906 -1.914062 53.015625 -3.53125 L 53.3125 -2.109375 C 52.164062 -1.710938 49.125 -1.191406 44.1875 -0.546875 C 39.25 0.0859375 35.234375 0.40625 32.140625 0.40625 C 29.054688 0.40625 26.367188 0.1875 24.078125 -0.25 C 21.796875 -0.6875 19.378906 -1.609375 16.828125 -3.015625 C 14.273438 -4.429688 12.109375 -6.296875 10.328125 -8.609375 C 8.546875 -10.929688 7.050781 -14.109375 5.84375 -18.140625 C 4.632812 -22.171875 4.03125 -26.875 4.03125 -32.25 C 4.03125 -44.144531 6.75 -53.414062 12.1875 -60.0625 C 17.90625 -67.050781 25.703125 -70.546875 35.578125 -70.546875 C 38.597656 -70.546875 41.867188 -70.257812 45.390625 -69.6875 C 48.921875 -69.113281 51.425781 -68.5625 52.90625 -68.03125 L 54.125 -53.515625 L 52.203125 -52.8125 L 50.890625 -63.59375 C 45.453125 -67.289062 40.347656 -69.140625 35.578125 -69.140625 Z M 35.578125 -69.140625 "/></g></g></g><g fill="#ffffff" fill-opacity="1"><g transform="translate(97.09357, 85.930551)"><g><path d="M 4.03125 -35.078125 C 4.03125 -46.160156 6.867188 -54.992188 12.546875 -61.578125 C 18.222656 -68.160156 25.296875 -71.453125 33.765625 -71.453125 C 53.578125 -71.453125 63.484375 -59.328125 63.484375 -35.078125 C 63.484375 -23.921875 60.660156 -15.132812 55.015625 -8.71875 C 49.378906 -2.300781 42.296875 0.90625 33.765625 0.90625 C 13.941406 0.90625 4.03125 -11.085938 4.03125 -35.078125 Z M 10.890625 -35.265625 C 10.890625 -12.492188 18.515625 -1.109375 33.765625 -1.109375 C 40.347656 -1.109375 45.804688 -4.128906 50.140625 -10.171875 C 54.472656 -16.222656 56.640625 -24.585938 56.640625 -35.265625 C 56.640625 -58.046875 49.015625 -69.4375 33.765625 -69.4375 C 27.242188 -69.4375 21.800781 -66.378906 17.4375 -60.265625 C 13.070312 -54.148438 10.890625 -45.816406 10.890625 -35.265625 Z M 10.890625 -35.265625 "/></g></g></g><g fill="#ffffff" fill-opacity="1"><g transform="translate(165.524177, 85.930551)"><g><path d="M 23.984375 -1.921875 C 28.953125 -1.921875 33.316406 -3.378906 37.078125 -6.296875 C 40.847656 -9.222656 42.734375 -13.675781 42.734375 -19.65625 C 42.734375 -22.34375 42.078125 -24.640625 40.765625 -26.546875 C 39.453125 -28.460938 37.71875 -29.941406 35.5625 -30.984375 C 33.414062 -32.023438 31.066406 -32.929688 28.515625 -33.703125 C 25.960938 -34.484375 23.410156 -35.304688 20.859375 -36.171875 C 18.304688 -37.046875 15.953125 -38.085938 13.796875 -39.296875 C 11.648438 -40.515625 9.921875 -42.226562 8.609375 -44.4375 C 7.304688 -46.65625 6.65625 -49.3125 6.65625 -52.40625 C 6.65625 -57.78125 8.5 -62.179688 12.1875 -65.609375 C 15.882812 -69.035156 20.820312 -70.75 27 -70.75 C 33.1875 -70.75 39.101562 -70.039062 44.75 -68.625 L 45.859375 -56.03125 L 43.9375 -55.234375 L 42.9375 -63.1875 C 37.957031 -66.882812 33.285156 -68.734375 28.921875 -68.734375 C 24.554688 -68.734375 20.894531 -67.40625 17.9375 -64.75 C 14.976562 -62.09375 13.5 -58.113281 13.5 -52.8125 C 13.5 -49.71875 14.742188 -47.265625 17.234375 -45.453125 C 19.722656 -43.640625 22.726562 -42.226562 26.25 -41.21875 C 29.78125 -40.207031 33.304688 -39.0625 36.828125 -37.78125 C 40.359375 -36.507812 43.363281 -34.363281 45.84375 -31.34375 C 48.332031 -28.320312 49.578125 -24.390625 49.578125 -19.546875 C 49.578125 -13.035156 47.257812 -8.132812 42.625 -4.84375 C 37.988281 -1.550781 31.875 0.09375 24.28125 0.09375 C 16.695312 0.09375 10.113281 -1.953125 4.53125 -6.046875 L 4.640625 -16.734375 L 6.546875 -17.234375 L 6.75 -11.484375 C 8.5625 -8.929688 11.046875 -6.695312 14.203125 -4.78125 C 17.367188 -2.875 20.628906 -1.921875 23.984375 -1.921875 Z M 23.984375 -1.921875 "/></g></g></g><g fill="#ffffff" fill-opacity="1"><g transform="translate(218.837562, 85.930551)"><g><path d="M 22.875 -68.53125 L 5.546875 -68.53125 L 3.9375 -55.234375 L 2.015625 -56.03125 L 3.015625 -68.53125 L 2.921875 -68.53125 L 3.125 -69.34375 L 3.21875 -70.546875 L 3.421875 -70.453125 L 3.421875 -70.546875 L 49.1875 -70.546875 L 50.484375 -56.03125 L 48.46875 -55.234375 L 46.859375 -68.53125 L 29.21875 -68.53125 L 29.21875 -1.921875 L 36.578125 -1.515625 C 36.578125 -1.441406 36.546875 -0.9375 36.484375 0 L 16.328125 0.09375 C 16.328125 -0.507812 16.359375 -0.976562 16.421875 -1.3125 L 21.671875 -2.015625 C 22.335938 -2.078125 22.738281 -2.515625 22.875 -3.328125 Z M 22.875 -68.53125 "/></g></g></g><g fill="#ffffff" fill-opacity="1"><g transform="translate(267.918008, 85.930551)"><g><path d="M 1.515625 0.09375 L 1.609375 -1.3125 L 6.859375 -2.015625 C 7.328125 -2.078125 7.726562 -2.515625 8.0625 -3.328125 L 29.828125 -70.546875 L 36.484375 -70.546875 L 59.65625 -1.921875 L 66.609375 -1.515625 C 66.609375 -1.441406 66.578125 -0.9375 66.515625 0 L 46.359375 0.09375 C 46.359375 -0.507812 46.390625 -0.976562 46.453125 -1.3125 L 51.703125 -2.015625 C 52.234375 -2.078125 52.5 -2.476562 52.5 -3.21875 L 46.96875 -19.65625 L 15.515625 -19.65625 L 10.171875 -2.109375 L 21.875 -1.515625 C 21.875 -1.441406 21.835938 -0.9375 21.765625 0 Z M 30.53125 -68.625 L 16.125 -21.671875 L 46.265625 -21.671875 Z M 30.53125 -68.625 "/></g></g></g><g clip-path="url(#c5940ef989)"><path fill="#88b4f0" d="M 291.761719 41.78125 C 291.761719 41.78125 291.503906 41.851562 290.996094 41.984375 C 290.488281 42.121094 289.730469 42.296875 288.753906 42.574219 C 286.792969 43.109375 283.9375 43.949219 280.410156 45.207031 C 278.640625 45.828125 276.71875 46.582031 274.652344 47.425781 C 272.589844 48.292969 270.386719 49.269531 268.082031 50.378906 C 263.46875 52.609375 258.425781 55.347656 253.109375 58.640625 C 247.785156 61.925781 242.179688 65.738281 236.285156 69.988281 C 230.390625 74.234375 224.214844 78.917969 217.609375 83.882812 C 210.996094 88.839844 203.96875 94.085938 196.171875 99.332031 C 192.273438 101.953125 188.171875 104.566406 183.800781 107.117188 C 181.609375 108.386719 179.351562 109.640625 177.015625 110.867188 C 174.675781 112.085938 172.246094 113.273438 169.730469 114.414062 C 167.222656 115.558594 164.621094 116.621094 161.964844 117.609375 C 159.304688 118.59375 156.582031 119.503906 153.769531 120.285156 C 153.078125 120.492188 152.355469 120.664062 151.652344 120.855469 C 151.292969 120.945312 150.953125 121.039062 150.582031 121.125 L 149.46875 121.378906 C 148.722656 121.542969 147.980469 121.707031 147.242188 121.871094 C 146.503906 122.003906 145.765625 122.136719 145.03125 122.269531 C 143.554688 122.554688 142.089844 122.722656 140.632812 122.925781 C 139.90625 123.035156 139.179688 123.089844 138.453125 123.164062 C 137.730469 123.234375 137.003906 123.304688 136.285156 123.375 C 130.519531 123.832031 124.890625 123.792969 119.457031 123.394531 C 114.019531 122.992188 108.777344 122.226562 103.800781 121.128906 C 98.824219 120.035156 94.109375 118.632812 89.71875 117.003906 C 88.628906 116.578125 87.550781 116.167969 86.488281 115.742188 C 85.449219 115.28125 84.417969 114.824219 83.394531 114.371094 L 82.632812 114.027344 L 81.894531 113.660156 C 81.40625 113.414062 80.917969 113.167969 80.433594 112.925781 C 79.953125 112.683594 79.46875 112.4375 78.992188 112.195312 C 78.511719 111.957031 78.066406 111.679688 77.601562 111.421875 C 76.695312 110.902344 75.796875 110.382812 74.902344 109.871094 C 74.050781 109.324219 73.207031 108.777344 72.371094 108.234375 C 71.957031 107.960938 71.535156 107.703125 71.140625 107.421875 C 70.75 107.132812 70.359375 106.851562 69.972656 106.570312 C 69.203125 106 68.429688 105.445312 67.695312 104.882812 C 66.988281 104.292969 66.289062 103.714844 65.59375 103.136719 C 65.253906 102.847656 64.910156 102.5625 64.570312 102.28125 C 64.246094 101.984375 63.933594 101.683594 63.621094 101.386719 C 62.996094 100.796875 62.378906 100.210938 61.769531 99.632812 C 61.460938 99.351562 61.183594 99.050781 60.910156 98.75 C 60.632812 98.449219 60.355469 98.152344 60.082031 97.859375 C 55.714844 93.140625 52.757812 88.488281 50.671875 84.332031 C 48.535156 80.1875 47.453125 76.46875 46.59375 73.476562 C 46.226562 71.964844 45.96875 70.617188 45.722656 69.460938 C 45.667969 69.167969 45.601562 68.894531 45.5625 68.625 C 45.527344 68.351562 45.496094 68.09375 45.460938 67.847656 C 45.398438 67.355469 45.34375 66.910156 45.292969 66.511719 C 45.105469 64.925781 45.007812 64.085938 45.007812 64.085938 C 45.007812 64.085938 45.425781 64.867188 46.214844 66.335938 C 46.410156 66.703125 46.625 67.117188 46.867188 67.570312 C 46.984375 67.796875 47.109375 68.03125 47.238281 68.28125 C 47.367188 68.527344 47.535156 68.777344 47.6875 69.039062 C 48.332031 70.089844 49.035156 71.300781 49.867188 72.644531 C 51.667969 75.285156 53.808594 78.507812 56.898438 81.898438 C 59.929688 85.304688 63.726562 88.945312 68.492188 92.390625 C 68.789062 92.605469 69.089844 92.824219 69.386719 93.039062 C 69.683594 93.257812 69.980469 93.480469 70.308594 93.683594 C 70.945312 94.09375 71.589844 94.511719 72.242188 94.933594 C 72.5625 95.140625 72.890625 95.351562 73.214844 95.5625 C 73.558594 95.757812 73.90625 95.957031 74.253906 96.15625 C 74.941406 96.554688 75.636719 96.957031 76.335938 97.363281 C 77.058594 97.75 77.804688 98.117188 78.542969 98.5 C 78.914062 98.691406 79.285156 98.882812 79.65625 99.074219 C 80.03125 99.265625 80.433594 99.429688 80.820312 99.609375 C 81.597656 99.964844 82.382812 100.324219 83.171875 100.683594 C 83.988281 101.011719 84.8125 101.339844 85.640625 101.671875 C 86.058594 101.832031 86.457031 102.015625 86.890625 102.164062 C 87.316406 102.3125 87.746094 102.464844 88.179688 102.617188 C 88.609375 102.765625 89.042969 102.917969 89.472656 103.070312 L 90.125 103.300781 L 90.792969 103.503906 C 91.683594 103.777344 92.582031 104.050781 93.484375 104.328125 C 94.40625 104.574219 95.332031 104.820312 96.265625 105.0625 C 100.015625 106 103.949219 106.757812 108.027344 107.289062 C 112.105469 107.824219 116.332031 108.101562 120.621094 108.128906 C 124.90625 108.15625 129.261719 107.933594 133.539062 107.390625 C 134.066406 107.3125 134.597656 107.234375 135.128906 107.160156 C 135.660156 107.082031 136.203125 107.023438 136.71875 106.917969 C 137.757812 106.71875 138.824219 106.570312 139.832031 106.328125 C 140.34375 106.214844 140.855469 106.105469 141.367188 105.996094 C 141.863281 105.871094 142.359375 105.742188 142.855469 105.613281 L 143.597656 105.425781 C 143.847656 105.363281 144.113281 105.277344 144.371094 105.203125 C 144.886719 105.046875 145.40625 104.914062 145.925781 104.742188 C 148 104.109375 150.082031 103.367188 152.171875 102.5625 C 154.261719 101.75 156.359375 100.878906 158.457031 99.925781 C 166.851562 96.128906 174.878906 91.546875 182.640625 86.9375 C 190.402344 82.3125 197.921875 77.625 205.273438 73.21875 C 212.625 68.808594 219.808594 64.671875 226.804688 61.019531 C 233.800781 57.359375 240.601562 54.183594 247.050781 51.597656 C 253.496094 48.996094 259.601562 47.015625 265.070312 45.566406 C 267.804688 44.847656 270.394531 44.269531 272.78125 43.789062 C 275.183594 43.332031 277.378906 42.957031 279.371094 42.695312 C 283.355469 42.160156 286.460938 41.953125 288.5625 41.863281 C 289.613281 41.8125 290.417969 41.8125 290.953125 41.796875 C 291.488281 41.785156 291.761719 41.78125 291.761719 41.78125 " fill-opacity="1" fill-rule="nonzero"/></g><g clip-path="url(#ed714a0d53)"><path fill="#88b4f0" d="M 306.050781 62.910156 C 306.050781 62.910156 305.398438 63.320312 304.183594 64.085938 C 303.574219 64.46875 302.808594 64.925781 301.945312 65.511719 C 301.507812 65.800781 301.039062 66.109375 300.539062 66.4375 C 300.039062 66.765625 299.503906 67.113281 298.957031 67.5 C 297.863281 68.273438 296.621094 69.09375 295.328125 70.058594 C 294.679688 70.539062 293.992188 71.023438 293.296875 71.542969 C 292.601562 72.070312 291.882812 72.617188 291.140625 73.179688 C 288.191406 75.457031 284.933594 78.101562 281.4375 81.105469 C 277.9375 84.105469 274.207031 87.460938 270.207031 91.101562 C 266.207031 94.738281 261.949219 98.664062 257.296875 102.761719 C 254.964844 104.808594 252.554688 106.902344 250 109.007812 C 248.738281 110.0625 247.410156 111.113281 246.089844 112.179688 C 244.730469 113.230469 243.386719 114.304688 241.957031 115.355469 C 239.15625 117.480469 236.152344 119.570312 233.015625 121.632812 C 229.871094 123.6875 226.519531 125.675781 223.007812 127.585938 C 219.472656 129.480469 215.824219 131.21875 212.105469 132.789062 C 211.167969 133.175781 210.222656 133.542969 209.285156 133.914062 C 208.816406 134.101562 208.34375 134.28125 207.878906 134.46875 C 207.398438 134.636719 206.917969 134.8125 206.441406 134.980469 C 205.960938 135.152344 205.484375 135.320312 205.007812 135.492188 C 204.53125 135.660156 204.046875 135.8125 203.566406 135.96875 C 202.601562 136.28125 201.648438 136.601562 200.679688 136.878906 C 192.96875 139.203125 185.195312 140.648438 177.742188 141.441406 C 174.019531 141.84375 170.363281 142.0625 166.820312 142.140625 C 163.277344 142.222656 159.84375 142.175781 156.542969 141.992188 C 156.128906 141.96875 155.71875 141.949219 155.3125 141.929688 C 154.902344 141.898438 154.496094 141.871094 154.09375 141.84375 C 153.285156 141.777344 152.484375 141.726562 151.695312 141.65625 C 150.113281 141.496094 148.566406 141.355469 147.0625 141.15625 C 144.046875 140.792969 141.1875 140.304688 138.488281 139.800781 C 133.097656 138.746094 128.371094 137.464844 124.351562 136.164062 C 120.328125 134.859375 117.011719 133.523438 114.371094 132.375 C 111.742188 131.199219 109.777344 130.214844 108.472656 129.519531 C 107.191406 128.816406 106.503906 128.441406 106.503906 128.441406 C 106.503906 128.441406 107.300781 128.648438 108.796875 129.027344 C 110.292969 129.410156 112.519531 129.933594 115.378906 130.535156 C 118.253906 131.109375 121.769531 131.753906 125.867188 132.292969 C 129.960938 132.832031 134.636719 133.273438 139.78125 133.492188 C 142.355469 133.582031 145.042969 133.648438 147.832031 133.601562 C 149.226562 133.601562 150.648438 133.542969 152.089844 133.503906 C 152.808594 133.46875 153.539062 133.433594 154.269531 133.398438 C 154.632812 133.378906 155.003906 133.363281 155.371094 133.34375 C 155.738281 133.316406 156.109375 133.292969 156.480469 133.265625 C 159.449219 133.078125 162.5 132.773438 165.605469 132.378906 C 168.714844 131.988281 171.882812 131.492188 175.074219 130.863281 C 181.460938 129.617188 187.992188 127.917969 194.394531 125.636719 C 195.203125 125.367188 195.988281 125.054688 196.789062 124.761719 C 197.1875 124.609375 197.589844 124.464844 197.984375 124.308594 C 198.378906 124.148438 198.773438 123.988281 199.171875 123.832031 C 199.566406 123.671875 199.964844 123.515625 200.363281 123.351562 C 200.757812 123.183594 201.152344 123.011719 201.542969 122.84375 C 202.335938 122.5 203.128906 122.15625 203.925781 121.8125 C 207.078125 120.375 210.222656 118.824219 213.34375 117.15625 C 216.453125 115.460938 219.492188 113.726562 222.433594 111.921875 C 225.371094 110.105469 228.253906 108.28125 231.042969 106.402344 C 232.453125 105.488281 233.820312 104.527344 235.195312 103.609375 C 236.558594 102.660156 237.921875 101.746094 239.253906 100.800781 C 241.933594 98.945312 244.554688 97.085938 247.128906 95.273438 C 252.28125 91.644531 257.246094 88.167969 262.03125 84.992188 C 266.8125 81.808594 271.410156 78.921875 275.75 76.417969 C 280.089844 73.902344 284.171875 71.777344 287.835938 70.019531 C 288.757812 69.59375 289.648438 69.175781 290.507812 68.773438 C 291.371094 68.382812 292.222656 68.023438 293.023438 67.675781 C 294.621094 66.964844 296.140625 66.386719 297.484375 65.851562 C 298.152344 65.578125 298.800781 65.347656 299.410156 65.128906 C 300.015625 64.914062 300.585938 64.707031 301.113281 64.519531 C 302.160156 64.132812 303.078125 63.851562 303.8125 63.613281 C 305.269531 63.15625 306.050781 62.910156 306.050781 62.910156 " fill-opacity="1" fill-rule="nonzero"/></g><g clip-path="url(#882cc2cafb)"><path fill="#88b4f0" d="M 52.824219 62.371094 C 52.824219 62.371094 98.96875 120.226562 200.980469 60.71875 C 200.980469 60.71875 105.851562 142.554688 52.824219 62.371094 " fill-opacity="1" fill-rule="nonzero"/></g><g transform="matrix(1, 0, 0, 1, 91, 84)"><g clip-path="url(#aef3582fd3)"><g fill="#ffffff" fill-opacity="1"><g transform="translate(0.21116, 48.585064)"><g><path d="M 12.90625 -1.03125 C 15.582031 -1.03125 17.929688 -1.816406 19.953125 -3.390625 C 21.984375 -4.960938 23 -7.359375 23 -10.578125 C 23 -12.023438 22.644531 -13.265625 21.9375 -14.296875 C 21.226562 -15.328125 20.296875 -16.117188 19.140625 -16.671875 C 17.984375 -17.234375 16.71875 -17.722656 15.34375 -18.140625 C 13.96875 -18.554688 12.59375 -19 11.21875 -19.46875 C 9.851562 -19.9375 8.585938 -20.492188 7.421875 -21.140625 C 6.265625 -21.796875 5.332031 -22.71875 4.625 -23.90625 C 3.925781 -25.101562 3.578125 -26.535156 3.578125 -28.203125 C 3.578125 -31.097656 4.570312 -33.46875 6.5625 -35.3125 C 8.550781 -37.15625 11.207031 -38.078125 14.53125 -38.078125 C 17.863281 -38.078125 21.046875 -37.695312 24.078125 -36.9375 L 24.671875 -30.15625 L 23.640625 -29.71875 L 23.109375 -34 C 20.429688 -35.988281 17.914062 -36.984375 15.5625 -36.984375 C 13.21875 -36.984375 11.25 -36.269531 9.65625 -34.84375 C 8.0625 -33.414062 7.265625 -31.273438 7.265625 -28.421875 C 7.265625 -26.753906 7.929688 -25.429688 9.265625 -24.453125 C 10.609375 -23.484375 12.226562 -22.726562 14.125 -22.1875 C 16.019531 -21.644531 17.914062 -21.03125 19.8125 -20.34375 C 21.71875 -19.65625 23.335938 -18.492188 24.671875 -16.859375 C 26.015625 -15.234375 26.6875 -13.117188 26.6875 -10.515625 C 26.6875 -7.015625 25.4375 -4.378906 22.9375 -2.609375 C 20.445312 -0.835938 17.15625 0.046875 13.0625 0.046875 C 8.976562 0.046875 5.4375 -1.050781 2.4375 -3.25 L 2.5 -9 L 3.53125 -9.28125 L 3.640625 -6.1875 C 4.609375 -4.8125 5.941406 -3.609375 7.640625 -2.578125 C 9.347656 -1.546875 11.101562 -1.03125 12.90625 -1.03125 Z M 12.90625 -1.03125 "/></g></g></g><g fill="#ffffff" fill-opacity="1"><g transform="translate(28.249786, 48.585064)"><g><path d="M 2.5 -37.15625 L 2.546875 -37.96875 L 25.765625 -37.96875 L 25.703125 -37.796875 L 26.40625 -30.15625 L 25.328125 -29.71875 L 24.453125 -36.875 L 9.703125 -36.875 L 9.703125 -19.359375 L 22.671875 -19.359375 C 22.847656 -19.328125 23.007812 -19.375 23.15625 -19.5 C 23.300781 -19.625 23.375 -19.796875 23.375 -20.015625 L 23.59375 -23.75 L 24.453125 -23.859375 L 24.453125 -14.59375 C 24.421875 -14.59375 24.148438 -14.570312 23.640625 -14.53125 L 23.421875 -18.28125 L 9.703125 -18.28125 L 9.703125 -1.078125 L 25.921875 -1.078125 L 26.953125 -9.765625 L 27.984375 -9.484375 L 27.171875 0 L 13.390625 0 L 2.5 0.046875 L 2.546875 -0.703125 L 5.375 -1.078125 C 5.726562 -1.117188 5.941406 -1.359375 6.015625 -1.796875 L 6.015625 -36.125 C 5.941406 -36.550781 5.726562 -36.785156 5.375 -36.828125 Z M 2.5 -37.15625 "/></g></g></g><g fill="#ffffff" fill-opacity="1"><g transform="translate(57.047691, 48.585064)"><g><path d="M 2.546875 -37.15625 L 2.609375 -37.96875 L 15.78125 -37.96875 C 19.507812 -37.96875 22.382812 -37.148438 24.40625 -35.515625 C 26.425781 -33.890625 27.4375 -31.46875 27.4375 -28.25 C 27.4375 -26.15625 26.628906 -23.96875 25.015625 -21.6875 C 23.410156 -19.414062 21.90625 -17.953125 20.5 -17.296875 L 30.53125 -0.96875 L 33.1875 -0.8125 C 33.1875 -0.78125 33.171875 -0.507812 33.140625 0 L 27.21875 0.046875 L 16.921875 -16.65625 L 9.703125 -16.65625 L 9.703125 -1.03125 L 13.5 -0.8125 C 13.5 -0.78125 13.484375 -0.507812 13.453125 0 L 2.546875 0.046875 L 2.609375 -0.703125 L 5.421875 -1.078125 C 5.671875 -1.117188 5.867188 -1.285156 6.015625 -1.578125 L 6.015625 -36.28125 C 5.910156 -36.601562 5.710938 -36.785156 5.421875 -36.828125 Z M 15.515625 -37.15625 L 9.703125 -37.15625 L 9.703125 -17.46875 L 18.984375 -17.46875 C 20.859375 -19.59375 22.117188 -21.476562 22.765625 -23.125 C 23.421875 -24.769531 23.75 -26.375 23.75 -27.9375 C 23.75 -30.96875 23.046875 -33.257812 21.640625 -34.8125 C 20.234375 -36.375 18.191406 -37.15625 15.515625 -37.15625 Z M 15.515625 -37.15625 "/></g></g></g><g fill="#ffffff" fill-opacity="1"><g transform="translate(90.780853, 48.585064)"><g><path d="M 2.5 -37.15625 L 2.546875 -37.96875 L 25.765625 -37.96875 L 25.703125 -37.796875 L 26.40625 -30.15625 L 25.328125 -29.71875 L 24.453125 -36.875 L 9.703125 -36.875 L 9.703125 -19.359375 L 22.671875 -19.359375 C 22.847656 -19.328125 23.007812 -19.375 23.15625 -19.5 C 23.300781 -19.625 23.375 -19.796875 23.375 -20.015625 L 23.59375 -23.75 L 24.453125 -23.859375 L 24.453125 -14.59375 C 24.421875 -14.59375 24.148438 -14.570312 23.640625 -14.53125 L 23.421875 -18.28125 L 9.703125 -18.28125 L 9.703125 -1.078125 L 25.921875 -1.078125 L 26.953125 -9.765625 L 27.984375 -9.484375 L 27.171875 0 L 13.390625 0 L 2.5 0.046875 L 2.546875 -0.703125 L 5.375 -1.078125 C 5.726562 -1.117188 5.941406 -1.359375 6.015625 -1.796875 L 6.015625 -36.125 C 5.941406 -36.550781 5.726562 -36.785156 5.375 -36.828125 Z M 2.5 -37.15625 "/></g></g></g><g fill="#ffffff" fill-opacity="1"><g transform="translate(119.578758, 48.585064)"><g><path d="M 2.4375 -37.15625 L 2.5 -37.96875 L 9.921875 -37.96875 L 31.015625 -1.515625 L 30.75 -36.0625 C 30.601562 -36.425781 30.40625 -36.625 30.15625 -36.65625 L 25.171875 -37.09375 C 25.128906 -37.3125 25.109375 -37.582031 25.109375 -37.90625 L 35.421875 -37.96875 C 35.421875 -37.925781 35.4375 -37.65625 35.46875 -37.15625 L 32 -36.765625 L 32 0 L 28.046875 0 L 6.9375 -36.453125 L 7.21875 -1.140625 L 13.390625 -0.8125 C 13.390625 -0.78125 13.375 -0.507812 13.34375 0 L 2.4375 0.046875 L 2.5 -0.703125 L 5.3125 -1.078125 C 5.675781 -1.117188 5.894531 -1.359375 5.96875 -1.796875 L 5.96875 -36.125 C 5.894531 -36.550781 5.675781 -36.785156 5.3125 -36.828125 Z M 2.4375 -37.15625 "/></g></g></g><g fill="#ffffff" fill-opacity="1"><g transform="translate(156.403163, 48.585064)"><g><path d="M 0.8125 0.046875 L 0.875 -0.703125 L 3.6875 -1.078125 C 3.9375 -1.117188 4.15625 -1.359375 4.34375 -1.796875 L 16.046875 -37.96875 L 19.625 -37.96875 L 32.109375 -1.03125 L 35.84375 -0.8125 C 35.84375 -0.78125 35.828125 -0.507812 35.796875 0 L 24.953125 0.046875 C 24.953125 -0.273438 24.96875 -0.523438 25 -0.703125 L 27.828125 -1.078125 C 28.109375 -1.117188 28.25 -1.335938 28.25 -1.734375 L 25.265625 -10.578125 L 8.359375 -10.578125 L 5.484375 -1.140625 L 11.765625 -0.8125 C 11.765625 -0.78125 11.75 -0.507812 11.71875 0 Z M 16.4375 -36.9375 L 8.671875 -11.65625 L 24.890625 -11.65625 Z M 16.4375 -36.9375 "/></g></g></g></g></g><g transform="matrix(1, 0, 0, 1, 47, 60)"><g clip-path="url(#b03743d597)"><g fill="#ffffff" fill-opacity="1"><g transform="translate(0.958985, 72.655553)"><g><path d="M 11.875 -23.59375 L 36.453125 -23.59375 L 36.453125 -22.125 L 11.875 -22.125 Z M 11.875 -23.59375 "/></g></g></g></g></g><g transform="matrix(1, 0, 0, 1, 274, 60)"><g clip-path="url(#cabb49542c)"><g fill="#ffffff" fill-opacity="1"><g transform="translate(0.502975, 72.655553)"><g><path d="M 11.875 -23.59375 L 36.453125 -23.59375 L 36.453125 -22.125 L 11.875 -22.125 Z M 11.875 -23.59375 "/></g></g></g></g></g></svg>